<svg width="38" height="32" viewBox="0 0 38 32" fill="none" xmlns="http://www.w3.org/2000/svg">
<g clip-path="url(#clip0_80_244)">
<path d="M0.25 4.50008C0.25 3.34949 1.18274 2.41675 2.33333 2.41675H14.8333V6.58341H0.25V4.50008Z" fill="#EB5054"/>
<path d="M0.25 6.58325H14.8333V10.7499H0.25V6.58325Z" fill="#EB794C"/>
<path d="M0.25 10.75H14.8333V14.9167H0.25V10.75Z" fill="#E6AB28"/>
<path d="M0.25 14.9167H14.8333V19.0834H0.25V14.9167Z" fill="#6DB345"/>
<path d="M0.25 19.0833H14.8333V23.2499H0.25V19.0833Z" fill="#00A2EB"/>
<path d="M0.25 23.25H14.8333V27.4167H0.25V23.25Z" fill="#A890CF"/>
<path d="M0.25 27.4167H14.8333V29.5001L21.0833 31.5834H2.33333C1.18274 31.5834 0.25 30.6507 0.25 29.5001V27.4167Z" fill="#CF8DBE"/>
<path d="M14.8333 0.333252H35.6666C36.8172 0.333252 37.7499 1.26599 37.7499 2.41659V4.49992H14.8333V0.333252Z" fill="#FF575B"/>
<path d="M14.8333 4.5H37.7499V8.66667H14.8333V4.5Z" fill="#FF8353"/>
<path d="M14.8333 8.66675H37.7499V12.8334H14.8333V8.66675Z" fill="#FABA2C"/>
<path d="M14.8333 12.8333H37.7499V16.9999H14.8333V12.8333Z" fill="#7AC74D"/>
<path d="M14.8333 17H37.7499V21.1667H14.8333V17Z" fill="#00B0FF"/>
<path d="M14.8333 21.1667H37.7499V25.3334H14.8333V21.1667Z" fill="#B99FE4"/>
<path d="M14.8333 25.3333H37.7499V27.4166C37.7499 28.5672 36.8172 29.4999 35.6666 29.4999H14.8333V25.3333Z" fill="#E39BD1"/>
<path d="M21.0833 31.5833V29.5H14.8333L21.0833 31.5833Z" fill="#A67499"/>
</g>
<defs>
<clipPath id="clip0_80_244">
<rect width="38" height="32" fill="white"/>
</clipPath>
</defs>
</svg>
