<svg width="173" height="48" viewBox="0 0 173 48" fill="none" xmlns="http://www.w3.org/2000/svg">
<rect x="2" y="2" width="169" height="43.5789" rx="6" fill="white"/>
<g clip-path="url(#clip0_95_342)">
<path d="M12.1842 15.3158C12.1842 14.468 12.8715 13.7808 13.7193 13.7808H22.9298V16.8509H12.1842V15.3158Z" fill="#EB5054"/>
<path d="M12.1842 16.8508H22.9298V19.921H12.1842V16.8508Z" fill="#EB794C"/>
<path d="M12.1842 19.9211H22.9298V22.9913H12.1842V19.9211Z" fill="#E6AB28"/>
<path d="M12.1842 22.9912H22.9298V26.0614H12.1842V22.9912Z" fill="#6DB345"/>
<path d="M12.1842 26.0613H22.9298V29.1315H12.1842V26.0613Z" fill="#00A2EB"/>
<path d="M12.1842 29.1316H22.9298V32.2018H12.1842V29.1316Z" fill="#A890CF"/>
<path d="M12.1842 32.2019H22.9298V33.737L27.5351 35.2721H13.7193C12.8715 35.2721 12.1842 34.5848 12.1842 33.737V32.2019Z" fill="#CF8DBE"/>
<path d="M22.9298 12.2456H38.2807C39.1285 12.2456 39.8158 12.9329 39.8158 13.7807V15.3158H22.9298V12.2456Z" fill="#FF575B"/>
<path d="M22.9298 15.3157H39.8158V18.3858H22.9298V15.3157Z" fill="#FF8353"/>
<path d="M22.9298 18.386H39.8158V21.4562H22.9298V18.386Z" fill="#FABA2C"/>
<path d="M22.9298 21.4561H39.8158V24.5262H22.9298V21.4561Z" fill="#7AC74D"/>
<path d="M22.9298 24.5264H39.8158V27.5965H22.9298V24.5264Z" fill="#00B0FF"/>
<path d="M22.9298 27.5964H39.8158V30.6666H22.9298V27.5964Z" fill="#B99FE4"/>
<path d="M22.9298 30.6665H39.8158V32.2016C39.8158 33.0494 39.1285 33.7367 38.2807 33.7367H22.9298V30.6665Z" fill="#E39BD1"/>
<path d="M27.5351 35.2719V33.7368H22.9298L27.5351 35.2719Z" fill="#A67499"/>
</g>
<path d="M49.2123 30.2896V16.3407H52.1615V27.858H58.1415V30.2896H49.2123ZM68.8006 20.8496C68.7053 20.5181 68.5713 20.2252 68.3988 19.971C68.2262 19.7121 68.0151 19.4942 67.7654 19.3171C67.5202 19.1355 67.2387 18.997 66.9208 18.9016C66.6075 18.8063 66.2602 18.7586 65.8787 18.7586C65.1659 18.7586 64.5393 18.9357 63.9989 19.2899C63.4631 19.644 63.0454 20.1594 62.7457 20.836C62.446 21.508 62.2962 22.3298 62.2962 23.3015C62.2962 24.2732 62.4438 25.0996 62.7389 25.7807C63.034 26.4618 63.4518 26.9817 63.9921 27.3404C64.5324 27.6946 65.1704 27.8717 65.906 27.8717C66.5735 27.8717 67.1433 27.7536 67.6155 27.5175C68.0923 27.2768 68.4555 26.9386 68.7053 26.5027C68.9596 26.0668 69.0867 25.5514 69.0867 24.9566L69.6861 25.0451H66.0899V22.8248H71.9269V24.582C71.9269 25.8079 71.668 26.8614 71.1504 27.7423C70.6328 28.6186 69.9199 29.2952 69.0118 29.7719C68.1036 30.2441 67.0638 30.4803 65.8924 30.4803C64.5847 30.4803 63.4359 30.1919 62.446 29.6153C61.4562 29.0341 60.6843 28.2099 60.1303 27.1429C59.5809 26.0713 59.3062 24.7999 59.3062 23.3288C59.3062 22.1981 59.4696 21.1901 59.7966 20.3047C60.128 19.4147 60.5912 18.661 61.186 18.0435C61.7808 17.4259 62.4733 16.956 63.2633 16.6336C64.0534 16.3112 64.9093 16.15 65.8311 16.15C66.6211 16.15 67.3567 16.2658 68.0378 16.4974C68.7189 16.7244 69.3228 17.0468 69.8495 17.4645C70.3808 17.8823 70.8144 18.3795 71.1504 18.9561C71.4864 19.5283 71.7021 20.1594 71.7975 20.8496H68.8006ZM74.1421 30.2896V16.3407H79.7271C80.7533 16.3407 81.6092 16.4928 82.2948 16.7971C82.9805 17.1013 83.4958 17.5236 83.8409 18.0639C84.186 18.5997 84.3585 19.2172 84.3585 19.9165C84.3585 20.4614 84.2496 20.9404 84.0316 21.3536C83.8137 21.7622 83.514 22.0983 83.1326 22.3616C82.7557 22.6204 82.3243 22.8043 81.8385 22.9133V23.0495C82.3697 23.0722 82.8669 23.2221 83.3301 23.499C83.7978 23.776 84.1769 24.1642 84.4675 24.6637C84.7581 25.1586 84.9034 25.7489 84.9034 26.4346C84.9034 27.1747 84.7195 27.8353 84.3517 28.4165C83.9885 28.9932 83.4504 29.4495 82.7375 29.7855C82.0247 30.1215 81.146 30.2896 80.1017 30.2896H74.1421ZM77.0913 27.8785H79.4955C80.3174 27.8785 80.9167 27.7218 81.2936 27.4085C81.6705 27.0907 81.8589 26.6684 81.8589 26.1417C81.8589 25.7557 81.7658 25.4152 81.5797 25.12C81.3935 24.8249 81.1279 24.5933 80.7828 24.4253C80.4422 24.2573 80.0359 24.1733 79.5636 24.1733H77.0913V27.8785ZM77.0913 22.1777H79.2776C79.6817 22.1777 80.0404 22.1073 80.3537 21.9666C80.6716 21.8213 80.9213 21.6169 81.1029 21.3536C81.2891 21.0902 81.3822 20.7747 81.3822 20.4069C81.3822 19.9029 81.2028 19.4965 80.8441 19.1877C80.4899 18.8789 79.9859 18.7246 79.3321 18.7246H77.0913V22.1777ZM86.2911 18.7722V16.3407H97.7472V18.7722H93.4767V30.2896H90.5616V18.7722H86.2911ZM104.393 16.3407H106.947L111.388 27.1838H111.551L115.992 16.3407H118.546V30.2896H116.544V20.1957H116.414L112.3 30.2691H110.639L106.525 20.1889H106.395V30.2896H104.393V16.3407ZM122.73 34.2127C122.426 34.2127 122.149 34.1877 121.899 34.1377C121.649 34.0923 121.463 34.0424 121.34 33.9879L121.831 32.3192C122.203 32.4191 122.534 32.4622 122.825 32.4486C123.116 32.435 123.372 32.326 123.595 32.1217C123.822 31.9174 124.022 31.5836 124.194 31.1205L124.446 30.4258L120.618 19.8279H122.798L125.447 27.9466H125.556L128.206 19.8279H130.392L126.081 31.6858C125.881 32.2307 125.627 32.6915 125.318 33.0684C125.009 33.4498 124.641 33.7359 124.215 33.9266C123.788 34.1173 123.293 34.2127 122.73 34.2127ZM137.189 19.8279V21.4626H131.475V19.8279H137.189ZM133.007 17.3215H135.044V27.2178C135.044 27.6128 135.103 27.9103 135.221 28.11C135.339 28.3053 135.491 28.4392 135.677 28.5119C135.868 28.58 136.075 28.6141 136.297 28.6141C136.461 28.6141 136.604 28.6027 136.726 28.58C136.849 28.5573 136.944 28.5391 137.012 28.5255L137.38 30.2078C137.262 30.2532 137.094 30.2986 136.876 30.344C136.658 30.394 136.386 30.4212 136.059 30.4258C135.523 30.4349 135.023 30.3395 134.56 30.1397C134.097 29.9399 133.723 29.6312 133.437 29.2134C133.15 28.7957 133.007 28.2712 133.007 27.6401V17.3215ZM141.703 24.078V30.2896H139.667V16.3407H141.676V21.5307H141.805C142.051 20.9676 142.425 20.5204 142.929 20.1889C143.433 19.8574 144.092 19.6917 144.904 19.6917C145.622 19.6917 146.248 19.8393 146.784 20.1344C147.325 20.4296 147.742 20.87 148.038 21.4558C148.337 22.037 148.487 22.7635 148.487 23.6353V30.2896H146.451V23.8804C146.451 23.1131 146.253 22.5183 145.858 22.096C145.463 21.6692 144.914 21.4558 144.21 21.4558C143.728 21.4558 143.297 21.5579 142.916 21.7622C142.539 21.9666 142.241 22.2663 142.023 22.6613C141.81 23.0518 141.703 23.524 141.703 24.078ZM159.044 22.382L157.198 22.709C157.121 22.4729 156.998 22.2481 156.83 22.0347C156.667 21.8213 156.444 21.6465 156.163 21.5102C155.881 21.374 155.53 21.3059 155.107 21.3059C154.531 21.3059 154.049 21.4353 153.663 21.6941C153.277 21.9484 153.084 22.2776 153.084 22.6817C153.084 23.0314 153.214 23.3129 153.473 23.5263C153.731 23.7397 154.149 23.9145 154.726 24.0507L156.388 24.4321C157.35 24.6546 158.068 24.9974 158.54 25.4606C159.012 25.9237 159.248 26.5254 159.248 27.2655C159.248 27.8921 159.067 28.4506 158.703 28.941C158.345 29.4268 157.843 29.8082 157.198 30.0852C156.558 30.3622 155.816 30.5007 154.971 30.5007C153.8 30.5007 152.844 30.251 152.104 29.7515C151.364 29.2475 150.909 28.5323 150.741 27.606L152.71 27.3064C152.832 27.8194 153.084 28.2077 153.466 28.471C153.847 28.7298 154.344 28.8593 154.957 28.8593C155.625 28.8593 156.158 28.7208 156.558 28.4438C156.958 28.1623 157.157 27.8194 157.157 27.4153C157.157 27.0884 157.035 26.8137 156.79 26.5912C156.549 26.3687 156.179 26.2007 155.679 26.0872L153.909 25.699C152.932 25.4765 152.21 25.1223 151.743 24.6365C151.28 24.1506 151.048 23.5354 151.048 22.7907C151.048 22.1732 151.22 21.6328 151.566 21.1697C151.911 20.7065 152.387 20.3456 152.996 20.0867C153.604 19.8234 154.301 19.6917 155.087 19.6917C156.217 19.6917 157.107 19.9369 157.757 20.4273C158.406 20.9131 158.835 21.5647 159.044 22.382Z" fill="black"/>
<rect x="2" y="2" width="169" height="43.5789" rx="6" stroke="black" stroke-width="3"/>
<defs>
<clipPath id="clip0_95_342">
<rect width="28" height="23.5789" fill="white" transform="translate(12 12)"/>
</clipPath>
</defs>
</svg>
